<!--?xml version="1.0" standalone="no"?-->
              <svg id="sw-js-blob-svg" viewBox="0 0 100 100" xmlns="http://www.w3.org/2000/svg" version="1.1">
                    <defs> 
                        <linearGradient id="sw-gradient" x1="0" x2="1" y1="1" y2="0">
                            <stop id="stop1" stop-color="rgba(131, 114, 238, 1)" offset="0%"></stop>
                            <stop id="stop2" stop-color="rgba(87, 63, 241, 1)" offset="100%"></stop>
                        </linearGradient>
                    </defs>
                <path fill="url(#sw-gradient)" d="M20.9,-37C27.2,-32.7,32.3,-27.1,35.4,-20.8C38.5,-14.4,39.6,-7.2,40.5,0.5C41.4,8.3,42.2,16.5,38.9,22.6C35.7,28.7,28.4,32.7,21.3,36.8C14.1,40.9,7,45.2,-0.3,45.7C-7.6,46.2,-15.2,42.8,-21.6,38.3C-27.9,33.7,-33,27.9,-37.2,21.3C-41.3,14.7,-44.5,7.3,-44.5,0C-44.5,-7.3,-41.3,-14.7,-36.8,-20.5C-32.2,-26.4,-26.2,-30.8,-19.9,-35.1C-13.5,-39.4,-6.8,-43.6,0.3,-44.1C7.4,-44.6,14.7,-41.4,20.9,-37Z" width="100%" height="100%" transform="translate(50 50)" stroke-width="0" style="transition: 0.3s;" stroke="url(#sw-gradient)"></path>
              </svg>