<?xml version="1.0" standalone="no"?>
<svg xmlns:xlink="http://www.w3.org/1999/xlink" id="wave" style="transform:rotate(180deg); transition: 0.3s" viewBox="0 0 1440 490" version="1.1" xmlns="http://www.w3.org/2000/svg"><defs><linearGradient id="sw-gradient-0" x1="0" x2="0" y1="1" y2="0"><stop stop-color="rgba(126, 109, 238, 1)" offset="0%"/><stop stop-color="rgba(131, 114, 238, 1)" offset="100%"/></linearGradient></defs><path style="transform:translate(0, 0px); opacity:1" fill="url(#sw-gradient-0)" d="M0,98L18.5,130.7C36.9,163,74,229,111,269.5C147.7,310,185,327,222,343C258.5,359,295,376,332,318.5C369.2,261,406,131,443,138.8C480,147,517,294,554,318.5C590.8,343,628,245,665,171.5C701.5,98,738,49,775,32.7C812.3,16,849,33,886,65.3C923.1,98,960,147,997,187.8C1033.8,229,1071,261,1108,269.5C1144.6,278,1182,261,1218,236.8C1255.4,212,1292,180,1329,155.2C1366.2,131,1403,114,1440,106.2C1476.9,98,1514,98,1551,122.5C1587.7,147,1625,196,1662,236.8C1698.5,278,1735,310,1772,334.8C1809.2,359,1846,376,1883,383.8C1920,392,1957,392,1994,351.2C2030.8,310,2068,229,2105,228.7C2141.5,229,2178,310,2215,326.7C2252.3,343,2289,294,2326,269.5C2363.1,245,2400,245,2437,261.3C2473.8,278,2511,310,2548,326.7C2584.6,343,2622,343,2640,343L2658.5,343L2658.5,490L2640,490C2621.5,490,2585,490,2548,490C2510.8,490,2474,490,2437,490C2400,490,2363,490,2326,490C2289.2,490,2252,490,2215,490C2178.5,490,2142,490,2105,490C2067.7,490,2031,490,1994,490C1956.9,490,1920,490,1883,490C1846.2,490,1809,490,1772,490C1735.4,490,1698,490,1662,490C1624.6,490,1588,490,1551,490C1513.8,490,1477,490,1440,490C1403.1,490,1366,490,1329,490C1292.3,490,1255,490,1218,490C1181.5,490,1145,490,1108,490C1070.8,490,1034,490,997,490C960,490,923,490,886,490C849.2,490,812,490,775,490C738.5,490,702,490,665,490C627.7,490,591,490,554,490C516.9,490,480,490,443,490C406.2,490,369,490,332,490C295.4,490,258,490,222,490C184.6,490,148,490,111,490C73.8,490,37,490,18,490L0,490Z"/></svg>